<svg width="860" height="751" viewBox="0 0 860 751" fill="none" xmlns="http://www.w3.org/2000/svg">
<mask id="mask0_37_15" style="mask-type:luminance" maskUnits="userSpaceOnUse" x="0" y="0" width="860" height="751">
<path d="M0 0H860V750.63H0V0Z" fill="white"/>
</mask>
<g mask="url(#mask0_37_15)">
<path d="M121.276 67.4063C140.89 83.6823 153.823 77.8646 159.635 79.0313C165.443 80.1875 177.068 84.8385 170.094 91.8073C163.12 98.7813 163.12 98.7813 163.12 98.7813L172.255 104.589C172.255 104.589 182.88 94.1354 192.177 95.2917C201.474 96.4583 224.724 99.9427 224.724 99.9427C224.724 99.9427 244.479 83.6771 259.594 86C274.703 88.3229 300.271 55.7917 332.818 60.4375C365.364 65.0833 373.5 81.3542 386.286 88.3229C399.073 95.2917 421.156 89.4844 430.453 91.8073C439.755 94.1354 439.755 102.266 454.864 98.7813C469.974 95.2917 539.708 81.3542 555.984 68.5729C572.255 55.7917 610.614 40.6823 621.073 44.1719C631.531 47.6563 626.885 27.901 660.594 26.7448C694.302 25.5781 702.432 37.1979 726.844 34.875C751.25 32.5521 816.344 25.5781 844.239 0.015625C853.536 1.18229 860.51 12.7969 859.349 19.7708C858.182 26.7448 859.474 36.0365 859.474 36.0365L788.448 104.589L731.495 123.182L717.547 158.036V192.891L731.495 228.917L729.167 259.125L711.734 276.552C711.734 276.552 721.031 295.141 716.385 304.438C711.734 313.734 710.573 376.479 710.573 376.479L675.703 436.896C675.703 436.896 639.672 442.703 636.182 443.87C604.802 465.943 145.687 740.151 145.687 740.151L136.39 750.609L80.5988 738.995L52.703 713.432L37.5936 718.078V694.839L24.8071 691.354L16.6665 682.057L3.88527 672.76C9.69778 664.63 18.9946 648.365 18.9946 648.365L14.3436 637.906C14.3436 637.906 -4.25535 597.24 3.88527 589.104C12.0207 580.974 38.7499 569.354 37.5936 561.219C36.4269 553.089 23.6405 551.922 23.6405 551.922C23.6405 551.922 32.9426 519.391 49.2134 519.391C65.4894 519.391 78.2707 529.849 79.4322 519.391C80.5988 508.932 70.1353 504.286 70.1353 504.286C70.1353 504.286 85.2447 484.531 92.2186 485.698C99.1926 486.859 92.2186 482.208 99.1926 474.078C106.167 465.943 117.792 460.13 117.792 460.13L105.005 450.479V441.542L95.7082 434.573V426.438L82.9217 422.953L72.4582 418.307L80.5988 410.172L84.0832 400.88L64.3228 395.068L25.9686 392.74C25.9686 392.74 18.9947 378.802 16.6665 352.078C14.3436 325.349 27.1301 317.219 21.3176 305.599C15.5051 293.979 25.9686 300.953 15.5051 284.688C5.04673 268.422 -3.7241 254.474 1.82277 244.021C7.36965 233.563 5.04673 230.073 9.69777 221.943C14.3436 213.813 38.7499 208 38.7499 208L50.3749 224.266C50.3749 224.266 52.703 205.677 58.5103 202.193C64.3228 198.708 75.9478 196.38 79.4322 196.38C82.9217 196.38 77.1092 174.302 77.1092 174.302C77.1092 174.302 75.9478 159.203 89.8957 159.203C103.844 159.203 103.844 168.495 114.302 162.682C124.76 156.875 107.328 138.286 102.682 127.828C98.0311 117.37 108.495 115.047 107.328 104.589C106.167 94.1354 115.661 62.7448 121.276 67.4063Z" fill="#040606"/>
</g>
</svg>
